<?xml version="1.0" encoding="UTF-8"?>
<svg version="1.1" xmlns="http://www.w3.org/2000/svg" width="288" height="233">
<path d="M0 0 C-1.3398575 3.97097662 -2.99681173 6.29335863 -5.9375 9.25 C-31.4515512 36.93807808 -42.04383597 76.79683063 -40.93041992 113.7097168 C-40.74104519 117.48819368 -40.41935892 121.24043864 -40 125 C-39.9268457 125.66725098 -39.85369141 126.33450195 -39.77832031 127.02197266 C-38.12405417 140.6173395 -32.65094113 152.9080441 -27.58984375 165.51171875 C-24.54822226 173.67721874 -22.88511145 182.9680238 -26.359375 191.234375 C-28.48178956 194.81215954 -30.49269018 196.75002767 -34 199 C-38.26408863 199.82530748 -40.35260078 199.92875557 -44.11328125 197.80859375 C-55.25011144 189.10466808 -57.67821048 173.47056898 -59.36743164 160.22387695 C-60.70106224 147.9018208 -60.70256869 135.38088054 -61 123 C-60.67 123 -60.34 123 -60 123 C-59.90501221 122.22624023 -59.81002441 121.45248047 -59.7121582 120.65527344 C-54.06717471 75.42840271 -38.8855288 32.33553369 -4 1 C-2 0 -2 0 0 0 Z M-40 58 C-39 61 -39 61 -39 61 Z M-41 61 C-40 63 -40 63 -40 63 Z M-42 63 C-42.33 64.32 -42.66 65.64 -43 67 C-42.34 67 -41.68 67 -41 67 C-41.33 65.68 -41.66 64.36 -42 63 Z M-44 68 C-43.67 68.99 -43.34 69.98 -43 71 C-42.67 70.01 -42.34 69.02 -42 68 C-42.66 68 -43.32 68 -44 68 Z M-45 70 C-48.00536711 79.86597972 -50.48103685 89.70847785 -52.25 99.875 C-52.41274414 100.79998291 -52.57548828 101.72496582 -52.74316406 102.67797852 C-56.87637767 127.40486309 -60.26207571 163.9611868 -46.515625 186.42578125 C-44.20291525 189.64869112 -42.32824909 191.78116727 -39 194 C-35.83875171 193.80242198 -33.73670237 193.55887766 -31.1875 191.625 C-27.87475658 187.09177216 -28.34890475 181.30797653 -29 176 C-30.44351487 171.24489221 -32.24794801 166.68554693 -34.14013672 162.09375 C-38.32554873 151.90235493 -41.94273229 141.86355752 -44 131 C-44.17273438 130.11304443 -44.34546875 129.22608887 -44.5234375 128.31225586 C-45.06153601 124.57230583 -45.1620035 120.90597278 -45.16796875 117.13671875 C-45.17129715 116.38646927 -45.17462555 115.63621979 -45.17805481 114.86323547 C-45.1831005 113.27561043 -45.18546387 111.68797485 -45.18530273 110.1003418 C-45.18745882 107.73271863 -45.20555424 105.36558589 -45.22460938 102.99804688 C-45.25375392 94.30514838 -44.85199798 85.87225571 -43.52616882 77.2696991 C-43.27391787 75.52251383 -43.12735748 73.76070071 -43 72 C-43.66 71.34 -44.32 70.68 -45 70 Z " fill="#BDB3A5" transform="translate(168,11)"/>
<path d="M0 0 C0.99 0.33 1.98 0.66 3 1 C-0.433114 6.750753 -4.90134388 11.17399356 -9.640625 15.87109375 C-10.90214386 17.13192528 -10.90214386 17.13192528 -12.18914795 18.41822815 C-13.96536489 20.19143145 -15.7440042 21.96221116 -17.52490234 23.73071289 C-20.23197864 26.41959973 -22.93103408 29.11633475 -25.62890625 31.81445312 C-27.36150953 33.54213777 -29.09456783 35.26936624 -30.828125 36.99609375 C-31.62736389 37.79421982 -32.42660278 38.59234589 -33.25006104 39.41465759 C-37.48969071 43.61903586 -41.8040403 47.67288769 -46.33898926 51.55793762 C-48.41340465 53.35891116 -50.34040833 55.27622037 -52.25 57.25 C-54.68519827 59.7657007 -57.05256357 62.09006119 -60 64 C-60.99 64 -61.98 64 -63 64 C-61.64941886 60.98611927 -60.14395225 58.8965323 -57.8046875 56.57421875 C-57.17046875 55.94193359 -56.53625 55.30964844 -55.8828125 54.65820312 C-55.22023437 54.00787109 -54.55765625 53.35753906 -53.875 52.6875 C-53.235625 52.04876953 -52.59625 51.41003906 -51.9375 50.75195312 C-48.81807207 47.6607128 -45.6472343 44.68845904 -42.31884766 41.82324219 C-37.64335408 37.74963533 -33.27528476 33.40148824 -28.90625 29.00390625 C-28.07411987 28.17036118 -27.24198975 27.3368161 -26.38464355 26.47801208 C-23.75405065 23.84186738 -21.12697559 21.20224895 -18.5 18.5625 C-16.70596145 16.76344021 -14.91169285 14.9646098 -13.1171875 13.16601562 C-8.74212875 8.77999188 -4.36994488 4.39111858 0 0 Z " fill="#C2BBB1" transform="translate(205,60)"/>
<path d="M0 0 C-1.3398575 3.97097662 -2.99681173 6.29335863 -5.9375 9.25 C-15.17824792 19.27814284 -22.13080597 31.04503464 -27.27563477 43.64282227 C-28.69446895 46.96031455 -29.49129761 48.7252424 -32.7265625 50.47265625 C-33.47679687 50.64667969 -34.22703125 50.82070313 -35 51 C-36.18631281 44.6598171 -35.40845205 39.95318088 -31.98193359 34.57128906 C-29.74220078 31.31180615 -27.39668032 28.14529189 -25 25 C-24.54061035 24.38125 -24.0812207 23.7625 -23.60791016 23.125 C-6.4295137 -0 -6.4295137 -0 0 0 Z " fill="#B6AB9D" transform="translate(168,11)"/>
<path d="M0 0 C-0.30273438 1.86962891 -0.30273438 1.86962891 -1 4 C-3.48190021 5.64026573 -5.86842513 7.01532485 -8.5 8.375 C-10.14904828 9.25797483 -11.79744981 10.14215826 -13.4453125 11.02734375 C-14.33895508 11.50284668 -15.23259766 11.97834961 -16.15332031 12.46826172 C-21.267038 15.21984532 -26.31531237 18.08819714 -31.375 20.9375 C-33.5009298 22.12696771 -35.62723087 23.31577209 -37.75390625 24.50390625 C-41.81003222 26.77098982 -45.85865254 29.05066636 -49.90234375 31.33984375 C-51.70553986 32.35189987 -53.50891541 33.36363635 -55.3125 34.375 C-56.54782471 35.08064087 -56.54782471 35.08064087 -57.80810547 35.80053711 C-58.56881348 36.22471924 -59.32952148 36.64890137 -60.11328125 37.0859375 C-61.10001831 37.6435376 -61.10001831 37.6435376 -62.10668945 38.21240234 C-64 39 -64 39 -68 39 C-66.52235256 35.07739283 -64.59034643 33.90157662 -60.92578125 32.00390625 C-59.87680664 31.4517041 -58.82783203 30.89950195 -57.74707031 30.33056641 C-56.04695801 29.45537354 -56.04695801 29.45537354 -54.3125 28.5625 C-51.93769151 27.3132415 -49.56401828 26.06200074 -47.19140625 24.80859375 C-46.58912201 24.49184692 -45.98683777 24.1751001 -45.36630249 23.84875488 C-39.43017537 20.72029449 -33.58251665 17.44232653 -27.75 14.125 C-26.80584229 13.58987793 -25.86168457 13.05475586 -24.88891602 12.50341797 C-20.76643935 10.16197066 -16.65429929 7.80483129 -12.5625 5.41015625 C-11.90797852 5.02907715 -11.25345703 4.64799805 -10.57910156 4.25537109 C-8.8981296 3.27398143 -7.22224615 2.28388949 -5.546875 1.29296875 C-3 0 -3 0 0 0 Z " fill="#C4BDB3" transform="translate(213,92)"/>
<path d="M0 0 C0 0.99 0 1.98 0 3 C-13.1007667 5.75886734 -26.25189281 8.10254044 -39.46533203 10.2487793 C-45.63057831 11.25353131 -51.76270472 12.30005014 -57.86621094 13.63378906 C-61.27431966 14.21870475 -64.55076407 14.12774948 -68 14 C-68.33 13.34 -68.66 12.68 -69 12 C-56.7529966 8.69201969 -44.44768661 6.37977104 -31.9375 4.3125 C-30.0943067 4.00251357 -28.25120713 3.69196928 -26.40820312 3.38085938 C-5.33300002 -0.16160606 -5.33300002 -0.16160606 0 0 Z " fill="#BEB6AA" transform="translate(214,123)"/>
<path d="M0 0 C0.99 0 1.98 0 3 0 C3.9979428 4.500789 3.85795999 7.562237 2.6875 12 C0.37432035 21.8681517 -0.23686863 31.91351315 -1 42 C-1.33 42 -1.66 42 -2 42 C-2 37.71 -2 33.42 -2 29 C-2.99 29 -3.98 29 -5 29 C-5 40.55 -5 52.1 -5 64 C-5.33 64 -5.66 64 -6 64 C-6.05036085 59.18434077 -6.08616083 54.36884288 -6.10986328 49.55297852 C-6.11976961 47.92306847 -6.1332984 46.29317542 -6.15087891 44.66333008 C-6.24279733 35.90674805 -6.10691892 27.2676051 -5.1171875 18.55859375 C-5.00022018 17.50322166 -5.00022018 17.50322166 -4.88088989 16.42652893 C-4.43610855 12.92545515 -3.846728 10.03280238 -2 7 C-2.66 6.67 -3.32 6.34 -4 6 C-3.01 6 -2.02 6 -1 6 C-0.67 4.02 -0.34 2.04 0 0 Z " fill="#C3B9AC" transform="translate(128,72)"/>
<path d="M0 0 C-1.38221389 4.16142472 -3.2877122 6.66570395 -6.3125 9.8125 C-10.18484339 13.978392 -13.17286362 18.07531082 -16 23 C-16.33 22.34 -16.66 21.68 -17 21 C-19.02463255 20.34786708 -19.02463255 20.34786708 -21 20 C-5.67640919 0 -5.67640919 0 0 0 Z " fill="#B9B0A4" transform="translate(168,11)"/>
<path d="M0 0 C0.99 0 1.98 0 3 0 C3.71656997 8.2901633 4.18000983 16.49320459 3.75 24.8125 C3.68296875 26.11832031 3.6159375 27.42414063 3.546875 28.76953125 C3 32 3 32 0 35 C0 23.45 0 11.9 0 0 Z " fill="#AB9C8B" transform="translate(123,101)"/>
<path d="M0 0 C0.99 0.33 1.98 0.66 3 1 C0.17621696 5.53149945 -2.91706367 9.17284627 -6.75 12.875 C-7.25660156 13.37257813 -7.76320312 13.87015625 -8.28515625 14.3828125 C-9.51885307 15.59323202 -10.75877784 16.79729853 -12 18 C-12.33 17.34 -12.66 16.68 -13 16 C-13.66 15.67 -14.32 15.34 -15 15 C-10.05 10.05 -5.1 5.1 0 0 Z " fill="#CDC6BC" transform="translate(205,60)"/>
<path d="M0 0 C0.33 0 0.66 0 1 0 C1.33 2.31 1.66 4.62 2 7 C3.32 7 4.64 7 6 7 C6.19551338 8.60320974 6.38111983 10.20762986 6.5625 11.8125 C6.66691406 12.70582031 6.77132812 13.59914062 6.87890625 14.51953125 C7.05793851 18.18680504 5.64689249 20.81600785 4 24 C-0.50697511 17.23953733 -0.26368413 7.91052393 0 0 Z " fill="#C4BAAD" transform="translate(109,165)"/>
<path d="M0 0 C0.33 0 0.66 0 1 0 C1.66 7.26 2.32 14.52 3 22 C2.01 21.01 1.02 20.02 0 19 C-0.66 20.32 -1.32 21.64 -2 23 C-3.86379928 5.79569892 -3.86379928 5.79569892 0 0 Z " fill="#B9AFA0" transform="translate(126,125)"/>
<path d="M0 0 C-6.20785896 5.19694614 -14.20424695 5.28873159 -22 5 C-22.33 4.34 -22.66 3.68 -23 3 C-15.1768938 0.41283102 -8.2236194 -0.38750039 0 0 Z " fill="#B6AEA0" transform="translate(168,132)"/>
<path d="M0 0 C1.66519519 0.34060811 3.33157466 0.67558396 5 1 C5 1.33 5 1.66 5 2 C2.41842632 2.53132389 -0.16461756 3.05034379 -2.75 3.5625 C-3.47960937 3.71396484 -4.20921875 3.86542969 -4.9609375 4.02148438 C-8.68715067 4.74978968 -11.37868188 5.07035162 -15 4 C-16.66519519 3.65939189 -18.33157466 3.32441604 -20 3 C-20 2.67 -20 2.34 -20 2 C-17.41842632 1.46867611 -14.83538244 0.94965621 -12.25 0.4375 C-11.52039063 0.28603516 -10.79078125 0.13457031 -10.0390625 -0.02148438 C-6.31284933 -0.74978968 -3.62131812 -1.07035162 0 0 Z " fill="#C5BDB3" transform="translate(181,129)"/>
<path d="M0 0 C-0.12890625 1.765625 -0.12890625 1.765625 -1 4 C-3.65234375 5.921875 -3.65234375 5.921875 -6.9375 7.75 C-8.01902344 8.36359375 -9.10054687 8.9771875 -10.21484375 9.609375 C-13 11 -13 11 -15 11 C-15 10.34 -15 9.68 -15 9 C-15.66 8.67 -16.32 8.34 -17 8 C-14.73354942 6.65869239 -12.46239903 5.32683766 -10.1875 4 C-9.54490234 3.6184375 -8.90230469 3.236875 -8.24023438 2.84375 C-3.33984375 0 -3.33984375 0 0 0 Z " fill="#C7C0B6" transform="translate(213,92)"/>
<path d="M0 0 C0.33 0 0.66 0 1 0 C1.08165496 2.20770805 1.13948488 4.41630425 1.1875 6.625 C1.22230469 7.85476562 1.25710937 9.08453125 1.29296875 10.3515625 C0.97456658 14.31673085 0.14563937 16.66900741 -2 20 C-5 21 -5 21 -7.1875 20.0625 C-8.0846875 19.5365625 -8.0846875 19.5365625 -9 19 C-8.36578125 18.63261719 -7.7315625 18.26523438 -7.078125 17.88671875 C-4.28989753 15.35530171 -4.22580491 13.49998803 -3.75 9.8125 C-3.60046875 8.72582031 -3.4509375 7.63914063 -3.296875 6.51953125 C-3.19890625 5.68808594 -3.1009375 4.85664063 -3 4 C-2.67 4 -2.34 4 -2 4 C-1.67 6.64 -1.34 9.28 -1 12 C-0.67 8.04 -0.34 4.08 0 0 Z " fill="#C4BCB0" transform="translate(142,185)"/>
<path d="M0 0 C2.99759932 1.49879966 3.30788674 3.80308864 4.40234375 6.85546875 C5.17376071 9.6234943 5.21405269 12.1459642 5 15 C3.125 14.8125 3.125 14.8125 1 14 C-1.53015779 9.82523964 -1.23633014 5.72660274 -1 1 C-0.67 0.67 -0.34 0.34 0 0 Z " fill="#B7AC9E" transform="translate(126,143)"/>
<path d="M0 0 C0.33 0 0.66 0 1 0 C2.80991127 6.78716727 2.43609916 14.17852898 1 21 C0.01 21.33 -0.98 21.66 -2 22 C-2.05454409 19.64551325 -2.0939279 17.29232125 -2.125 14.9375 C-2.14820312 13.62652344 -2.17140625 12.31554687 -2.1953125 10.96484375 C-1.99417522 6.88175701 -1.27165462 3.85000947 0 0 Z " fill="#ADA292" transform="translate(112,112)"/>
<path d="M0 0 C0.33 0 0.66 0 1 0 C1 8.58 1 17.16 1 26 C0.01 26 -0.98 26 -2 26 C-2.05785647 22.04172765 -2.09354717 18.0835633 -2.125 14.125 C-2.14175781 12.99707031 -2.15851563 11.86914062 -2.17578125 10.70703125 C-2.18222656 9.63066406 -2.18867187 8.55429688 -2.1953125 7.4453125 C-2.20578613 6.45031738 -2.21625977 5.45532227 -2.22705078 4.43017578 C-2 2 -2 2 0 0 Z " fill="#A09584" transform="translate(111,134)"/>
<path d="M0 0 C-0.875 7.625 -0.875 7.625 -2 11 C-3.32 11 -4.64 11 -6 11 C-6.75 8.3125 -6.75 8.3125 -7 5 C-3.95652174 0 -3.95652174 0 0 0 Z " fill="#B7AC9D" transform="translate(135,63)"/>
<path d="M0 0 C-1.50912958 4.98012761 -4.55661849 8.24259942 -8 12 C-8.33 11.01 -8.66 10.02 -9 9 C-9.66 8.67 -10.32 8.34 -11 8 C-9.87811441 6.85111717 -8.75238316 5.70598863 -7.625 4.5625 C-6.99851563 3.92441406 -6.37203125 3.28632813 -5.7265625 2.62890625 C-3.74785826 0.76211967 -2.74097805 0 0 0 Z " fill="#BEB8AE" transform="translate(168,11)"/>
<path d="M0 0 C0.515625 0.2475 1.03125 0.495 1.5625 0.75 C0.9025 0.75 0.2425 0.75 -0.4375 0.75 C-0.4375 1.74 -0.4375 2.73 -0.4375 3.75 C-6.9375 7.75 -6.9375 7.75 -11.4375 7.75 C-10.40545898 4.53920572 -8.85001338 3.15059709 -6.0625 1.4375 C-2.4375 -0.25 -2.4375 -0.25 0 0 Z " fill="#BFB8AD" transform="translate(156.4375,123.25)"/>
<path d="M0 0 C1.485 0.99 1.485 0.99 3 2 C3.2208564 4.95064148 3.28060989 7.68368231 3.1875 10.625 C3.17396484 11.42679688 3.16042969 12.22859375 3.14648438 13.0546875 C3.11109051 15.03674378 3.05728234 17.01845551 3 19 C2.34 18.67 1.68 18.34 1 18 C0.68618781 15.32667541 0.48629358 12.74513902 0.375 10.0625 C0.33632812 9.32064453 0.29765625 8.57878906 0.2578125 7.81445312 C0.12554085 5.20917404 0 2.60907522 0 0 Z " fill="#A29989" transform="translate(139,179)"/>
<path d="M0 0 C2.18975773 3.28463659 2.99806563 6.20696275 4 10 C2.35 10.33 0.7 10.66 -1 11 C-1.99 8.03 -2.98 5.06 -4 2 C-2.68 2.33 -1.36 2.66 0 3 C0 2.01 0 1.02 0 0 Z " fill="#C3B8AA" transform="translate(131,155)"/>
<path d="M0 0 C0.66 0.33 1.32 0.66 2 1 C1.9375 2.8125 1.9375 2.8125 1 5 C-2.5625 6.75 -2.5625 6.75 -6 8 C-6 7.34 -6 6.68 -6 6 C-6.99 5.67 -7.98 5.34 -9 5 C-7.54735962 4.1361871 -6.0876837 3.28419546 -4.625 2.4375 C-3.40683594 1.72400391 -3.40683594 1.72400391 -2.1640625 0.99609375 C-1.44992188 0.66738281 -0.73578125 0.33867188 0 0 Z " fill="#C8C1B8" transform="translate(174,112)"/>
<path d="M0 0 C-4.40914783 1.10228696 -8.48382401 1.07654536 -13 1 C-13.33 0.34 -13.66 -0.32 -14 -1 C-8.05964945 -3.29513544 -5.47691025 -2.93405906 0 0 Z " fill="#C3BDB6" transform="translate(159,136)"/>
<path d="M0 0 C0 0.99 0 1.98 0 3 C-8.03571429 5.27678571 -8.03571429 5.27678571 -12 4 C-11.01 3.67 -10.02 3.34 -9 3 C-9.99 2.34 -10.98 1.68 -12 1 C-7.95858806 0.36605303 -4.0934693 -0.12404452 0 0 Z " fill="#D3CDC4" transform="translate(214,123)"/>
<path d="M0 0 C0.66 0 1.32 0 2 0 C4.47272727 7.56363636 4.47272727 7.56363636 3 11 C2.01 12.485 2.01 12.485 1 14 C-0.67357513 8.62694301 -0.67357513 8.62694301 -1 6 C0.375 4 0.375 4 2 3 C1.34 3 0.68 3 0 3 C0 2.01 0 1.02 0 0 Z " fill="#C4BDAE" transform="translate(137,173)"/>
<path d="M0 0 C0.99 0.33 1.98 0.66 3 1 C2.01 1.495 2.01 1.495 1 2 C0.87625 2.61875 0.7525 3.2375 0.625 3.875 C-0.21377145 6.72682293 -1.47724337 7.51602551 -4 9 C-4.99 9 -5.98 9 -7 9 C-5.44499019 5.18315774 -2.96404505 2.80804268 0 0 Z " fill="#BCB6AD" transform="translate(149,115)"/>
<path d="M0 0 C2.46278801 2.46278801 2.99771255 4.70676982 4 8 C2.35 8.66 0.7 9.32 -1 10 C-1.02689216 8.52093108 -1.04634621 7.04172517 -1.0625 5.5625 C-1.07410156 4.73878906 -1.08570313 3.91507813 -1.09765625 3.06640625 C-1 1 -1 1 0 0 Z " fill="#B0A694" transform="translate(134,52)"/>
<path d="M0 0 C0.33 0 0.66 0 1 0 C1.33 3.63 1.66 7.26 2 11 C1.01 10.01 0.02 9.02 -1 8 C-1.66 9.32 -2.32 10.64 -3 12 C-3.33 8.7 -3.66 5.4 -4 2 C-3.67 2.99 -3.34 3.98 -3 5 C-2.34 5 -1.68 5 -1 5 C-0.67 3.35 -0.34 1.7 0 0 Z " fill="#D0C6BA" transform="translate(127,136)"/>
<path d="M0 0 C1.66519519 0.34060811 3.33157466 0.67558396 5 1 C5 1.33 5 1.66 5 2 C1.7 2.33 -1.6 2.66 -5 3 C-5 2.67 -5 2.34 -5 2 C-6.65 1.67 -8.3 1.34 -10 1 C-10 0.67 -10 0.34 -10 0 C-6.28363799 -0.76016496 -3.61877928 -1.16734815 0 0 Z " fill="#D4CDC1" transform="translate(181,129)"/>
<path d="M0 0 C0 0.99 0 1.98 0 3 C-0.66 3.66 -1.32 4.32 -2 5 C-2.33 5.845625 -2.66 6.69125 -3 7.5625 C-4 10 -4 10 -6 11 C-6 10.34 -6 9.68 -6 9 C-6.66 8.67 -7.32 8.34 -8 8 C-5.36 5.36 -2.72 2.72 0 0 Z " fill="#CEC9C3" transform="translate(198,67)"/>
<path d="M0 0 C0.66 0.33 1.32 0.66 2 1 C2.40729228 3.32156597 2.74438677 5.6568787 3 8 C1.68 8.33 0.36 8.66 -1 9 C-1.09765625 2.84765625 -1.09765625 2.84765625 -1 1 C-0.67 0.67 -0.34 0.34 0 0 Z " fill="#AFA494" transform="translate(126,143)"/>
<path d="M0 0 C0.66 1.32 1.32 2.64 2 4 C-0.97 6.475 -0.97 6.475 -4 9 C-3.38461538 3.46153846 -3.38461538 3.46153846 -1.4375 1.125 C-0.963125 0.75375 -0.48875 0.3825 0 0 Z " fill="#C9C3BA" transform="translate(153,111)"/>
<path d="M0 0 C1.485 0.99 1.485 0.99 3 2 C2.74438677 4.3431213 2.40729228 6.67843403 2 9 C1.01 9.495 1.01 9.495 0 10 C0 6.7 0 3.4 0 0 Z " fill="#B0A798" transform="translate(139,179)"/>
<path d="M0 0 C1.65 0 3.3 0 5 0 C4.67 0.99 4.34 1.98 4 3 C2.35 3.33 0.7 3.66 -1 4 C-0.67 2.68 -0.34 1.36 0 0 Z " fill="#BAB3A8" transform="translate(163,118)"/>
<path d="M0 0 C0.66 0 1.32 0 2 0 C1.65120368 3.25543229 0.97866739 4.01873107 -1.5625 6.25 C-2.366875 6.8275 -3.17125 7.405 -4 8 C-3.40312566 4.65750371 -2.26396123 2.53563658 0 0 Z " fill="#B9B1A6" transform="translate(199,67)"/>
<path d="M0 0 C1.65 0 3.3 0 5 0 C4.67 0.99 4.34 1.98 4 3 C2.35 3.33 0.7 3.66 -1 4 C-0.67 2.68 -0.34 1.36 0 0 Z " fill="#BAB5A9" transform="translate(176,111)"/>
<path d="M0 0 C0.66 0 1.32 0 2 0 C2.33 2.31 2.66 4.62 3 7 C2.01 7.495 2.01 7.495 1 8 C0.67 5.36 0.34 2.72 0 0 Z " fill="#AFA792" transform="translate(119,80)"/>
<path d="M0 0 C1.65 0.33 3.3 0.66 5 1 C4.34 2.32 3.68 3.64 3 5 C1.35 5 -0.3 5 -2 5 C-1.34 3.35 -0.68 1.7 0 0 Z " fill="#D2C6B8" transform="translate(132,60)"/>
<path d="M0 0 C0.99 0 1.98 0 3 0 C3.33 0.66 3.66 1.32 4 2 C3.01 3.32 2.02 4.64 1 6 C0.01 5.67 -0.98 5.34 -2 5 C-1.34 3.35 -0.68 1.7 0 0 Z " fill="#C0B3A4" transform="translate(135,48)"/>
<path d="M0 0 C0.99 0 1.98 0 3 0 C3 2.31 3 4.62 3 7 C2.34 7 1.68 7 1 7 C0.67 4.69 0.34 2.38 0 0 Z " fill="#B4A596" transform="translate(116,92)"/>
<path d="M0 0 C0.33 0 0.66 0 1 0 C1.33 2.31 1.66 4.62 2 7 C0.33333333 7 -1.33333333 7 -3 7 C-1.125 2.25 -1.125 2.25 0 0 Z " fill="#C2B9AD" transform="translate(132,53)"/>
<path d="M0 0 C2 1 2 1 2 1 Z " fill="#FFFFFF" transform="translate(147,132)"/>
<path d="" fill="#FFFFFF" transform="translate(0,0)"/>
<path d="" fill="#FFFFFF" transform="translate(0,0)"/>
<path d="" fill="#FFFFFF" transform="translate(0,0)"/>
<path d="" fill="#FFFFFF" transform="translate(0,0)"/>
<path d="" fill="#FFFFFF" transform="translate(0,0)"/>
<path d="" fill="#FFFFFF" transform="translate(0,0)"/>
<path d="" fill="#FFFFFF" transform="translate(0,0)"/>
<path d="" fill="#FFFFFF" transform="translate(0,0)"/>
<path d="" fill="#FFFFFF" transform="translate(0,0)"/>
<path d="" fill="#FFFFFF" transform="translate(0,0)"/>
<path d="" fill="#FFFFFF" transform="translate(0,0)"/>
<path d="" fill="#FFFFFF" transform="translate(0,0)"/>
<path d="" fill="#FFFFFF" transform="translate(0,0)"/>
<path d="" fill="#FFFFFF" transform="translate(0,0)"/>
<path d="" fill="#FFFFFF" transform="translate(0,0)"/>
<path d="" fill="#FFFFFF" transform="translate(0,0)"/>
<path d="" fill="#FFFFFF" transform="translate(0,0)"/>
<path d="" fill="#FFFFFF" transform="translate(0,0)"/>
<path d="" fill="#FFFFFF" transform="translate(0,0)"/>
<path d="" fill="#FFFFFF" transform="translate(0,0)"/>
<path d="" fill="#FFFFFF" transform="translate(0,0)"/>
<path d="" fill="#FFFFFF" transform="translate(0,0)"/>
<path d="" fill="#FFFFFF" transform="translate(0,0)"/>
<path d="" fill="#FFFFFF" transform="translate(0,0)"/>
<path d="" fill="#FFFFFF" transform="translate(0,0)"/>
<path d="" fill="#FFFFFF" transform="translate(0,0)"/>
<path d="" fill="#FFFFFF" transform="translate(0,0)"/>
<path d="" fill="#FFFFFF" transform="translate(0,0)"/>
<path d="" fill="#FFFFFF" transform="translate(0,0)"/>
<path d="" fill="#FFFFFF" transform="translate(0,0)"/>
<path d="" fill="#FFFFFF" transform="translate(0,0)"/>
<path d="" fill="#FFFFFF" transform="translate(0,0)"/>
<path d="" fill="#FFFFFF" transform="translate(0,0)"/>
<path d="" fill="#FFFFFF" transform="translate(0,0)"/>
<path d="" fill="#FFFFFF" transform="translate(0,0)"/>
<path d="" fill="#FFFFFF" transform="translate(0,0)"/>
<path d="" fill="#FFFFFF" transform="translate(0,0)"/>
<path d="" fill="#FFFFFF" transform="translate(0,0)"/>
<path d="" fill="#FFFFFF" transform="translate(0,0)"/>
<path d="" fill="#FFFFFF" transform="translate(0,0)"/>
<path d="" fill="#FFFFFF" transform="translate(0,0)"/>
<path d="" fill="#FFFFFF" transform="translate(0,0)"/>
<path d="" fill="#FFFFFF" transform="translate(0,0)"/>
<path d="" fill="#FFFFFF" transform="translate(0,0)"/>
<path d="" fill="#FFFFFF" transform="translate(0,0)"/>
<path d="" fill="#FFFFFF" transform="translate(0,0)"/>
<path d="" fill="#FFFFFF" transform="translate(0,0)"/>
<path d="" fill="#FFFFFF" transform="translate(0,0)"/>
<path d="" fill="#FFFFFF" transform="translate(0,0)"/>
<path d="" fill="#FFFFFF" transform="translate(0,0)"/>
<path d="" fill="#FFFFFF" transform="translate(0,0)"/>
<path d="" fill="#FFFFFF" transform="translate(0,0)"/>
<path d="" fill="#FFFFFF" transform="translate(0,0)"/>
<path d="" fill="#FFFFFF" transform="translate(0,0)"/>
<path d="" fill="#FFFFFF" transform="translate(0,0)"/>
<path d="" fill="#FFFFFF" transform="translate(0,0)"/>
<path d="" fill="#FFFFFF" transform="translate(0,0)"/>
<path d="" fill="#FFFFFF" transform="translate(0,0)"/>
<path d="" fill="#FFFFFF" transform="translate(0,0)"/>
<path d="" fill="#FFFFFF" transform="translate(0,0)"/>
<path d="" fill="#FFFFFF" transform="translate(0,0)"/>
<path d="" fill="#FFFFFF" transform="translate(0,0)"/>
<path d="" fill="#FFFFFF" transform="translate(0,0)"/>
<path d="" fill="#FFFFFF" transform="translate(0,0)"/>
</svg>
